<svg xmlns="http://www.w3.org/2000/svg" version="1.1" xmlns:xlink="http://www.w3.org/1999/xlink" xmlns:svgjs="http://svgjs.com/svgjs" width="289.56074" height="288.52106"><svg id="SvgjsSvg1000" xmlns="http://www.w3.org/2000/svg" viewBox="0 0 289.56074 288.52106"><path d="M226.91791,6.23829h62.64282c-9.87726,20.10305-18.15355,45.79269-24.82506,77.06891-6.67151,31.27999-10.00538,53.15546-10.00538,65.63204,0,16.11559,3.02874,37.16983,9.09751,63.16272,6.06501,25.99289,13.68582,49.38649,22.87374,70.1808h-61.34322c-.8702-3.46572-2.42977-8.31772-4.67872-14.55602-3.639-10.39716-6.75815-20.79431-9.35744-31.19147-21.31417,34.66095-51.72585,51.98578-91.23504,51.98578-37.26024,0-66.587-15.11731-87.98404-45.35571C10.69852,212.92696,0,177.62183,0,137.24245c0-38.12102,10.65708-70.52549,31.97125-97.2134C53.28542,13.3449,82.91731,0,120.86693,0c37.42976,0,67.66815,17.93509,90.71518,53.80528,3.11915-12.64799,8.22731-28.50365,15.3358-47.56698ZM74.85952,145.04031c0,25.47303,5.4133,46.13926,16.24367,61.99115,10.83037,15.85943,24.91173,23.78538,42.24033,23.78538,16.63545,0,30.23839-7.01808,40.80883-21.05424,10.56667-14.03616,15.85566-35.61026,15.85566-64.72229,0-28.59218-5.63179-50.25103-16.89538-64.98222-11.26735-14.72742-24.86653-22.09395-40.80883-22.09395-16.63545,0-30.37024,7.62646-41.20061,22.87374-10.83037,15.25104-16.24367,36.64997-16.24367,64.20243Z" style="fill:#007a5c; stroke-width:0px;"></path></svg><style>@media (prefers-color-scheme: light) { :root { filter: none; } }
@media (prefers-color-scheme: dark) { :root { filter: none; } }
</style></svg>